<svg xmlns="http://www.w3.org/2000/svg" viewBox="0 0 24 30" fill="none" x="0px" y="0px"><path fill-rule="evenodd" clip-rule="evenodd" d="M12.3343 4.90778C12.1468 4.75772 11.879 4.76226 11.6966 4.91859L5.6746 10.0803C5.56378 10.1753 5.5 10.314 5.5 10.4599V18C5.5 18.2761 5.72386 18.5 6 18.5H18.5C18.7761 18.5 19 18.2761 19 18V10.4806C19 10.3287 18.931 10.1851 18.8123 10.0902L12.3343 4.90778ZM11.0458 4.15933C11.593 3.69034 12.3963 3.67673 12.959 4.12692L19.437 9.30932C19.7929 9.59398 20 10.0249 20 10.4806V18C20 18.8284 19.3284 19.5 18.5 19.5H6C5.17157 19.5 4.5 18.8284 4.5 18V10.4599C4.5 10.022 4.69134 9.60602 5.02381 9.32104L11.0458 4.15933Z" fill="black"/><text x="0" y="39" fill="#000000" font-size="5px" font-weight="bold" font-family="'Helvetica Neue', Helvetica, Arial-Unicode, Arial, Sans-serif">Created by Henning Gross</text><text x="0" y="44" fill="#000000" font-size="5px" font-weight="bold" font-family="'Helvetica Neue', Helvetica, Arial-Unicode, Arial, Sans-serif">from the Noun Project</text></svg>